<svg width="118" height="118" viewBox="0 0 118 118" fill="none" xmlns="http://www.w3.org/2000/svg">
<circle cx="59" cy="59" r="59" fill="#FFC500"/>
<path d="M98.7185 95.907C97.5535 95.882 96.3834 95.862 95.2184 95.907C94.0533 95.952 93.4133 95.662 93.3983 94.2969C93.3833 92.9319 93.9783 92.4918 95.2734 92.5168C97.7985 92.5618 100.334 92.5768 102.864 92.5168C104.924 92.4568 105.689 91.5868 105.609 89.5767C105.299 82.1164 102.014 76.2812 95.9884 71.946C91.9883 69.0659 87.4081 68.0959 82.5879 67.9459C81.6628 67.9159 80.9128 67.7309 80.9128 66.5458C80.9128 65.4558 81.5728 65.3158 82.4129 65.2308C83.7429 65.1108 84.673 64.3657 84.628 62.9907C84.578 61.4906 83.4529 60.8806 82.0879 60.8506C79.8144 60.7939 77.5427 60.7939 75.2726 60.8506C73.9275 60.8806 72.7425 61.4106 72.6475 62.9157C72.5525 64.4207 73.5825 65.1308 74.9776 65.2458C75.8876 65.3158 76.4476 65.5608 76.4226 66.6208C76.3976 67.6809 75.7526 67.8759 74.8826 67.9359C73.1975 68.0046 71.518 68.1715 69.8524 68.4359C59.742 70.361 53.0017 78.0013 51.7217 88.8117C51.4167 91.4268 52.2767 92.4668 54.8768 92.5168C57.2119 92.5618 59.547 92.5568 61.8771 92.5168C63.1271 92.5168 63.9822 92.6518 63.9622 94.2769C63.9622 95.817 63.1271 95.937 61.9621 95.907C60.667 95.872 59.362 95.857 58.0669 95.907C56.6612 95.9533 55.3065 96.4445 54.1977 97.3098C53.0889 98.1751 52.2833 99.3699 51.8967 100.722C50.7916 104.997 53.8618 108.872 58.5469 108.917C65.2322 108.992 71.9175 108.917 78.5977 108.917C85.278 108.917 91.9682 108.957 98.6485 108.917C102.724 108.882 105.649 106.047 105.604 102.322C105.559 98.5971 102.694 96.002 98.7185 95.907ZM58.1619 88.1167C56.3069 88.1167 56.1619 87.4516 56.5119 85.9316C58.3019 78.6013 64.5122 73.1261 72.5475 72.4311C77.2377 72.041 82.0129 71.886 86.708 72.6861C91.4032 73.4861 95.0834 75.9412 98.2585 80.2414C95.8184 80.2414 93.8983 80.2414 91.9733 80.2414C90.5332 80.2414 89.3181 80.6414 89.2581 82.3364C89.1981 84.0315 90.4382 84.5615 91.8332 84.6165C94.0983 84.7065 96.3734 84.7465 98.6435 84.6515C100.284 84.5815 100.879 85.4066 100.929 86.8366C100.984 88.4867 99.6836 88.0317 98.8235 88.0317C85.268 88.0867 71.7175 88.0467 58.1619 88.1167ZM89.0381 94.2269C89.0381 95.697 88.2431 95.927 87.0381 95.907C84.188 95.872 81.3328 95.907 78.4827 95.907C75.6326 95.907 72.7725 95.907 69.9224 95.907C68.7873 95.907 68.0973 95.702 68.0823 94.3219C68.0673 92.9419 68.6173 92.5068 69.9274 92.5168C75.6326 92.5568 81.3378 92.5468 87.0431 92.5168C88.2581 92.5018 89.0281 92.7769 89.0381 94.2269ZM97.7735 104.502H59.802C59.1546 104.526 58.5063 104.504 57.8619 104.437C57.3651 104.396 56.903 104.166 56.5716 103.794C56.2401 103.421 56.0648 102.935 56.0819 102.437C56.0419 101.312 56.7169 100.622 57.8169 100.437C58.3956 100.364 58.9792 100.339 59.562 100.362H97.7185C99.3135 100.362 101.029 100.227 101.264 102.417C101.419 103.812 100.194 104.502 97.7735 104.502Z" fill="#2A344E"/>
<path d="M80.6128 45.5699C71.9191 38.8563 63.2271 32.1477 54.5368 25.4441C53.8775 24.9184 53.1468 24.4891 52.3667 24.1691C39.1228 19.2056 25.8657 14.262 12.5951 9.33852C10.18 8.44848 9.035 9.31352 9 11.9336C9 16.0304 9 20.1273 9 24.2241C9.05 31.0844 12.0551 36.3446 17.7203 40.0647C19.1881 41.022 20.5317 42.1574 21.7205 43.4448C25.1206 47.11 28.5308 50.7751 31.9859 54.3953C34.856 57.3954 38.6412 57.9504 41.6463 55.8953C44.8764 53.6752 45.7364 49.8951 43.8814 46.0449C43.0763 44.3599 42.2463 42.6948 41.2263 40.6197C43.2263 40.9648 44.8064 41.3248 46.3915 41.4748C48.0915 41.6298 48.8216 42.4748 49.1616 44.1249C49.9416 47.88 50.8266 51.6252 51.7717 55.3253C52.1596 57.023 53.1849 58.5067 54.6357 59.4699C56.0865 60.433 57.8519 60.802 59.567 60.5005C63.1921 59.7955 65.3222 56.7154 64.8522 52.8402C64.8122 52.5402 64.7872 52.2302 64.7572 51.9202C65.6122 51.7102 66.0722 52.2752 66.6022 52.5852C69.0723 54.0203 71.4774 55.5853 73.9975 56.9204C78.2927 59.1955 82.7629 56.9604 83.5329 52.1652C84.0029 49.3901 82.7829 47.245 80.6128 45.5699ZM59.0019 56.0403C57.4419 56.3754 56.3418 55.7353 55.9518 54.1303C55.2418 51.2001 54.5618 48.27 53.8517 45.2799C58.0369 46.41 59.962 49.1551 60.407 53.1102C60.557 54.3853 60.637 55.6903 59.0019 56.0403ZM78.7727 52.5752C78.0777 53.6802 76.9777 53.5752 76.0126 53.0502C74.1775 52.0502 72.4125 50.9751 70.6274 49.9101C65.0522 46.585 59.387 43.4098 53.9468 39.8647C50.8116 37.8246 47.3715 37.2496 43.8764 36.5946C42.0313 36.2446 40.1662 35.9796 38.3261 35.5945C37.2761 35.3795 36.3911 35.5095 35.701 36.3696C35.011 37.2296 35.201 38.1796 35.646 39.1097C37.1811 42.2648 38.7212 45.4149 40.2362 48.58C40.5642 49.1612 40.6604 49.8449 40.5056 50.494C40.3507 51.1431 39.9562 51.7097 39.4012 52.0802C38.1661 53.0052 36.8261 52.8452 35.631 51.9002C35.1383 51.467 34.6771 50.9991 34.251 50.5001C30.6075 46.6266 26.9657 42.7465 23.3256 38.8597C22.7839 38.2106 22.1364 37.6578 21.4105 37.2246C15.5753 34.1195 13.0902 29.1043 13.1802 22.644C13.1802 21.794 13.1802 20.954 13.1802 20.1039C13.1802 18.7389 13.2552 17.3688 13.1802 16.0088C13.0652 14.3887 13.6802 14.3437 14.9952 14.8437C26.4023 19.1339 37.8278 23.3891 49.2716 27.6092C50.6149 28.1058 51.8732 28.8075 53.0017 29.6893C61.1054 35.9896 69.2223 42.2698 77.3527 48.53C77.7759 48.8305 78.1739 49.1649 78.5427 49.5301C78.941 49.9249 79.1839 50.4498 79.2271 51.0089C79.2702 51.568 79.1107 52.124 78.7777 52.5752H78.7727Z" fill="#2A344E"/>
<path d="M98.8335 54.5402C97.6885 54.3602 96.8334 53.9302 96.5884 52.8201C96.5061 52.5665 96.4765 52.2988 96.5013 52.0333C96.5261 51.7678 96.6047 51.5102 96.7325 51.2761C96.8603 51.0421 97.0345 50.8366 97.2444 50.6722C97.4544 50.5078 97.6956 50.388 97.9535 50.32C100.799 49.435 103.674 48.64 106.564 47.915C106.804 47.8498 107.054 47.8333 107.3 47.8665C107.546 47.8997 107.783 47.9819 107.997 48.1082C108.211 48.2345 108.398 48.4024 108.546 48.6019C108.694 48.8015 108.8 49.0286 108.859 49.27C109.234 50.4 108.859 51.4851 107.764 51.8601C104.819 52.8551 101.814 53.6652 98.8335 54.5402Z" fill="#2A344E"/>
<path d="M84.6029 38.6046C84.6029 37.1796 84.5679 35.7545 84.6029 34.3345C84.6479 33.0444 85.328 32.2594 86.658 32.2594C87.9881 32.2594 88.6981 33.0444 88.7131 34.3345C88.7531 37.1796 88.7631 40.0247 88.7131 42.8698C88.6881 44.1449 87.9681 44.9499 86.643 44.9499C85.318 44.9499 84.6429 44.1599 84.5929 42.8698C84.5479 41.4498 84.5929 40.0247 84.5929 38.6046H84.6029Z" fill="#2A344E"/>
<path d="M97.7635 38.8297C99.3485 38.8297 100.489 40.4148 99.6535 41.7849C98.1784 44.2156 96.4522 46.4848 94.5033 48.5551C93.7633 49.3351 92.7233 49.3151 91.8582 48.6001C90.9932 47.8851 90.7432 46.9301 91.3582 46C92.8619 43.6668 94.5331 41.4459 96.3584 39.3548C96.5405 39.1705 96.7605 39.0282 97.0031 38.9375C97.2457 38.8468 97.5052 38.8101 97.7635 38.8297Z" fill="#2A344E"/>
<path d="M84.5829 82.5014C84.6038 82.7804 84.5628 83.0607 84.463 83.3222C84.3633 83.5837 84.2071 83.8199 84.0056 84.0142C83.8042 84.2085 83.5624 84.356 83.2975 84.4463C83.0326 84.5366 82.751 84.5673 82.4729 84.5364C82.1931 84.5517 81.9134 84.5068 81.6525 84.4048C81.3916 84.3028 81.1556 84.1461 80.9603 83.9452C80.7651 83.7443 80.6152 83.5039 80.5208 83.2402C80.4263 82.9764 80.3895 82.6955 80.4128 82.4163C80.4478 81.1363 81.3378 80.5113 82.4479 80.3013C83.8079 80.5013 84.598 81.2363 84.5829 82.5014Z" fill="#2A344E"/>
</svg>
