<svg width="118" height="118" viewBox="0 0 118 118" fill="none" xmlns="http://www.w3.org/2000/svg">
<circle cx="59" cy="59" r="59" fill="#FFC500"/>
<path d="M104.192 42.2046C102.787 42.0996 102.277 41.5596 102.062 40.2846C100.627 31.7847 95.7868 25.6198 88.6419 21.1348C82.8357 17.4813 76.1071 15.5611 69.2472 15.5999C68.5272 15.5999 67.5672 16.0299 67.4922 14.5249C67.3072 10.925 65.3872 9 62.3023 9C59.3023 9 57.3823 10.955 57.1673 14.4049C57.1073 15.4049 56.7723 15.6449 55.9124 15.6199C53.9047 15.5772 51.8971 15.7093 49.9124 16.0149C36.3126 18.0699 24.3528 27.6598 22.5578 40.5646C22.4128 41.5946 21.9278 42.0646 20.7828 42.1746C17.3829 42.4996 15.4579 44.7145 15.6629 47.8145C15.8379 50.5944 18.0929 52.4994 21.2978 52.4994C26.4927 52.4994 31.6877 52.5444 36.8826 52.4994C38.3176 52.4994 39.0376 52.7144 38.8176 54.4094C38.6726 55.9627 38.6726 57.5261 38.8176 59.0793C39.076 63.2505 38.1227 67.4074 36.0726 71.0492C34.3426 74.1791 32.6727 77.3341 31.7127 80.799C31.4477 81.744 31.0427 82.069 30.0727 81.909C27.9827 81.564 26.3527 82.409 24.8178 83.819C20.8178 87.5389 16.7029 91.1039 11.7229 93.5189C10.8852 93.8996 10.1795 94.5206 9.69522 95.3031C9.21097 96.0856 8.97003 96.9942 9.00298 97.9138C9.00298 99.7988 9.00298 101.679 9.00298 103.564C9.04298 106.994 11.003 108.964 14.5029 108.989C18.3329 108.989 22.1628 108.989 26.0028 108.989C29.8427 108.989 33.7926 108.989 37.6876 108.989C38.8652 109.072 40.0342 108.735 40.9876 108.039C42.6125 106.749 44.2575 105.479 45.8225 104.114C46.6468 103.456 47.2291 102.543 47.478 101.519C47.7269 100.494 47.6282 99.4162 47.1975 98.4538C46.7275 97.2488 47.0125 96.5638 47.8475 95.7588C50.8631 92.8102 54.2619 90.2808 57.9523 88.2389C59.5556 87.3803 60.989 86.2366 62.1823 84.864C66.0809 80.329 70.4786 76.2482 75.2921 72.6992C76.4789 71.8552 77.4874 70.7852 78.2596 69.5505C79.0318 68.3158 79.5526 66.9407 79.792 65.5042C80.5644 61.3368 82.3158 57.4124 84.902 54.0544C85.2797 53.5292 85.7864 53.1103 86.3732 52.8379C86.9599 52.5656 87.607 52.449 88.2519 52.4994C93.3819 52.5794 98.5118 52.5494 103.637 52.4994C106.672 52.4994 108.852 50.4994 108.992 47.7295C109.142 44.7445 107.262 42.4446 104.192 42.2046ZM26.5027 39.8196C28.0027 32.9447 32.1627 27.9747 38.0026 24.3198C43.0074 21.1282 48.8165 19.4254 54.7524 19.4099C61.2523 19.4099 67.7522 18.8049 74.1921 19.7999C83.112 21.1748 90.5019 25.2198 95.5018 32.9997C96.894 35.2725 97.8488 37.7857 98.3168 40.4096C98.5718 41.7096 98.2568 42.2646 96.9018 42.1246C96.4488 42.0995 95.9948 42.0995 95.5418 42.1246H28.3677C26.1178 42.1296 26.0028 42.0296 26.5027 39.8196ZM42.3375 102.209C39.9126 104.534 37.2476 105.709 33.7926 105.314C31.2327 105.029 28.6127 105.259 26.0278 105.259C22.3978 105.259 18.7678 105.214 15.1429 105.259C13.3929 105.289 12.8729 104.544 12.6879 102.839C12.2829 99.0838 13.0579 96.4788 16.9429 94.7139C20.8278 92.9489 24.0028 89.7139 27.1477 86.714C28.5077 85.419 29.5427 85.324 30.8977 86.714C34.7426 90.6639 38.6776 94.5089 42.5575 98.4188C44.1875 100.079 44.0325 100.584 42.3375 102.209ZM75.6671 66.4692C75.3824 67.5502 74.7027 68.4851 73.7621 69.0892C68.3444 73.1271 63.376 77.7351 58.9423 82.834C58.2532 83.6112 57.4259 84.2537 56.5023 84.729C52.3724 86.9347 48.5957 89.7458 45.2975 93.0689C44.2975 94.0689 43.6975 94.2689 42.6525 93.1489C40.3876 90.7389 38.0176 88.4189 35.6526 86.119C35.2625 85.7858 34.9814 85.3432 34.8459 84.8484C34.7104 84.3536 34.7267 83.8294 34.8926 83.344C35.662 80.1784 36.8989 77.1451 38.5626 74.3441C41.6452 69.1813 43.0904 63.2053 42.7075 57.2044C42.655 56.492 42.655 55.7767 42.7075 55.0644C42.7925 54.1644 42.2875 52.7994 43.6325 52.6394C44.2609 52.5739 44.891 52.7459 45.399 53.1216C45.907 53.4973 46.256 54.0494 46.3775 54.6694C47.1132 57.3005 47.3573 60.0447 47.0975 62.7643C46.9125 64.4393 46.6275 66.1042 46.5125 67.7642C46.3025 70.7242 47.3675 73.1491 49.9474 74.6991C52.5274 76.2491 55.3974 76.3641 57.7973 74.4191C61.8273 71.1492 65.6672 67.6442 69.5472 64.1993C70.5872 63.2743 71.0922 61.9643 71.6171 60.6993C72.412 58.8643 73.3779 57.1082 74.5021 55.4544C76.0521 53.1094 78.0571 51.9144 81.267 52.7394C78.2921 56.9994 76.6671 61.6043 75.6671 66.4692ZM59.9623 62.8293C59.3023 65.7342 58.9623 68.8792 56.2823 70.9442C54.8574 72.0442 53.4024 72.4442 51.8174 71.4442C50.3174 70.4842 50.0474 69.0542 50.3174 67.3592C51.1696 62.9607 51.11 58.434 50.1424 54.0594C49.9524 53.2694 49.6974 52.4944 51.0124 52.4994C55.1424 52.4994 59.2723 52.4994 63.8922 52.4994C61.3823 55.8544 60.7523 59.3393 59.9623 62.8293ZM71.6071 52.6994C67.9522 60.6143 67.1072 61.8693 63.6823 64.2443C64.5022 56.4694 67.5022 52.0594 71.6071 52.6994ZM103.797 48.6995C103.152 48.7545 102.502 48.7445 101.852 48.7445H62.3523C49.0524 48.7445 35.751 48.7445 22.4478 48.7445C21.3028 48.7445 19.5628 49.2045 19.5478 47.3945C19.5478 45.4845 21.3228 45.8945 22.5478 45.8945C49.1541 45.8745 75.7588 45.8745 102.362 45.8945C102.879 45.8727 103.397 45.8911 103.912 45.9495C104.697 46.0795 105.242 46.5245 105.212 47.3845C105.213 47.5667 105.176 47.7473 105.104 47.9148C105.033 48.0823 104.927 48.2332 104.794 48.358C104.661 48.4828 104.504 48.5789 104.333 48.6403C104.161 48.7016 103.979 48.7269 103.797 48.7145V48.6995Z" fill="#2A344E"/>
<path d="M57.5023 23.9997C57.2923 25.6197 56.2074 25.9547 54.8474 25.9997C50.8125 26.1169 46.8526 27.1188 43.2475 28.9347C39.5176 30.8297 36.4426 33.4346 34.3726 37.1346C33.7626 38.2246 33.0277 39.2245 31.6227 38.4746C30.2177 37.7246 30.4177 36.5146 31.1227 35.3046C34.9676 28.5297 41.0376 24.8797 48.3875 23.0748C50.6515 22.4802 52.987 22.2026 55.3274 22.2498C56.5323 22.2998 57.2723 22.8398 57.5023 23.9997Z" fill="#2A344E"/>
</svg>
